<?xml version="1.0" encoding="UTF-8"?>
<svg xmlns="http://www.w3.org/2000/svg"
     width="280mm" height="280mm" viewBox="0 0 280 280">
  <title>TickRace.com - Logo textile (vector)</title>

  <!-- Mountain -->
  <path d="M40,150 L120,60 L240,150 L215,150 L120,90 L65,150 Z"
        fill="#FFFFFF" stroke="#000000" stroke-width="2.2"
        stroke-linejoin="round"/>

  <!-- Check -->
  <path d="M160,110 L190,140 L245,85"
        fill="none" stroke="#FF7A00" stroke-width="10"
        stroke-linecap="round" stroke-linejoin="round"/>

  <!-- Text: Tick -->
  <path d="M0.242,-36.453 L33.836,-36.453 L33.836,-29.344 L21.750,-29.344 L21.750,-0.000 L12.352,-0.000 L12.352,-29.344 L0.242,-29.344 L0.242,-36.453 Z M38.310,-27.344 L47.044,-27.344 L47.044,-0.000 L38.310,-0.000 L38.310,-27.344 Z M38.310,-37.992 L47.044,-37.992 L47.044,-30.859 L38.310,-30.859 L38.310,-37.992 Z M77.542,-26.492 L77.542,-19.359 Q75.761,-20.578 73.964,-21.164 Q72.167,-21.750 70.237,-21.750 Q66.581,-21.750 64.542,-19.617 Q62.503,-17.484 62.503,-13.648 Q62.503,-9.812 64.542,-7.672 Q66.581,-5.539 70.237,-5.539 Q72.292,-5.539 74.136,-6.148 Q75.979,-6.766 77.542,-7.961 L77.542,-0.805 Q75.487,-0.047 73.378,0.328 Q71.269,0.711 69.144,0.711 Q61.745,0.711 57.565,-3.086 Q53.394,-6.883 53.394,-13.648 Q53.394,-20.414 57.565,-24.203 Q61.745,-28.000 69.144,-28.000 Q71.292,-28.000 73.378,-27.625 Q75.464,-27.250 77.542,-26.492 Z M85.087,-37.992 L93.821,-37.992 L93.821,-17.312 L103.884,-27.344 L114.040,-27.344 L100.681,-14.797 L115.087,-0.000 L104.493,-0.000 L93.821,-11.398 L93.821,-0.000 L85.087,-0.000 L85.087,-37.992 Z"
        transform="translate(20.000,205.000) scale(0.623095) translate(-0.242,37.992)"
        fill="#FF7A00" stroke="#000000" stroke-width="3.531" stroke-linejoin="round"/>

  <!-- Text: Race.com -->
  <path d="M17.945,-20.289 Q20.898,-20.289 22.180,-21.383 Q23.461,-22.484 23.461,-25.000 Q23.461,-27.492 22.180,-28.562 Q20.898,-29.641 17.945,-29.641 L13.992,-29.641 L13.992,-20.289 L17.945,-20.289 Z M13.992,-13.797 L13.992,-0.000 L4.594,-0.000 L4.594,-36.453 L18.945,-36.453 Q26.148,-36.453 29.500,-34.031 Q32.859,-31.617 32.859,-26.391 Q32.859,-22.781 31.109,-20.461 Q29.367,-18.141 25.852,-17.039 Q27.781,-16.602 29.305,-15.047 Q30.836,-13.500 32.398,-10.352 L37.500,-0.000 L27.492,-0.000 L23.047,-9.055 Q21.703,-11.789 20.320,-12.789 Q18.945,-13.797 16.648,-13.797 L13.992,-13.797 Z M54.954,-12.305 Q52.220,-12.305 50.837,-11.375 Q49.462,-10.453 49.462,-8.641 Q49.462,-6.984 50.571,-6.039 Q51.688,-5.102 53.665,-5.102 Q56.126,-5.102 57.813,-6.867 Q59.501,-8.641 59.501,-11.305 L59.501,-12.305 L54.954,-12.305 Z M68.313,-15.602 L68.313,-0.000 L59.501,-0.000 L59.501,-4.055 Q57.743,-1.562 55.540,-0.422 Q53.345,0.711 50.196,0.711 Q45.946,0.711 43.298,-1.766 Q40.649,-4.250 40.649,-8.203 Q40.649,-13.016 43.954,-15.258 Q47.267,-17.508 54.345,-17.508 L59.501,-17.508 L59.501,-18.188 Q59.501,-20.266 57.860,-21.227 Q56.228,-22.195 52.759,-22.195 Q49.954,-22.195 47.532,-21.633 Q45.118,-21.070 43.040,-19.945 L43.040,-26.609 Q45.853,-27.297 48.681,-27.648 Q51.517,-28.000 54.345,-28.000 Q61.743,-28.000 65.024,-25.086 Q68.313,-22.172 68.313,-15.602 Z M98.538,-26.492 L98.538,-19.359 Q96.757,-20.578 94.960,-21.164 Q93.163,-21.750 91.233,-21.750 Q87.577,-21.750 85.538,-19.617 Q83.499,-17.484 83.499,-13.648 Q83.499,-9.812 85.538,-7.672 Q87.577,-5.539 91.233,-5.539 Q93.288,-5.539 95.132,-6.148 Q96.976,-6.766 98.538,-7.961 L98.538,-0.805 Q96.483,-0.047 94.374,0.328 Q92.265,0.711 90.140,0.711 Q82.741,0.711 78.562,-3.086 Q74.390,-6.883 74.390,-13.648 Q74.390,-20.414 78.562,-24.203 Q82.741,-28.000 90.140,-28.000 Q92.288,-28.000 94.374,-27.625 Q96.460,-27.250 98.538,-26.492 Z M133.372,-13.742 L133.372,-11.258 L112.942,-11.258 Q113.255,-8.180 115.161,-6.641 Q117.067,-5.102 120.481,-5.102 Q123.239,-5.102 126.130,-5.922 Q129.028,-6.742 132.083,-8.398 L132.083,-1.664 Q128.981,-0.492 125.880,0.109 Q122.778,0.711 119.677,0.711 Q112.255,0.711 108.138,-3.062 Q104.028,-6.836 104.028,-13.648 Q104.028,-20.336 108.067,-24.164 Q112.106,-28.000 119.192,-28.000 Q125.638,-28.000 129.505,-24.117 Q133.372,-20.242 133.372,-13.742 Z M124.388,-16.648 Q124.388,-19.141 122.935,-20.664 Q121.481,-22.195 119.138,-22.195 Q116.599,-22.195 115.013,-20.766 Q113.427,-19.336 113.036,-16.648 L124.388,-16.648 Z M140.893,-9.445 L149.682,-9.445 L149.682,-0.000 L140.893,-0.000 L140.893,-9.445 Z M181.082,-26.492 L181.082,-19.359 Q179.301,-20.578 177.504,-21.164 Q175.707,-21.750 173.777,-21.750 Q170.121,-21.750 168.082,-19.617 Q166.043,-17.484 166.043,-13.648 Q166.043,-9.812 168.082,-7.672 Q170.121,-5.539 173.777,-5.539 Q175.832,-5.539 177.676,-6.148 Q179.520,-6.766 181.082,-7.961 L181.082,-0.805 Q179.027,-0.047 176.918,0.328 Q174.809,0.711 172.684,0.711 Q165.285,0.711 161.105,-3.086 Q156.934,-6.883 156.934,-13.648 Q156.934,-20.414 161.105,-24.203 Q165.285,-28.000 172.684,-28.000 Q174.832,-28.000 176.918,-27.625 Q179.004,-27.250 181.082,-26.492 Z M201.635,-21.750 Q198.729,-21.750 197.205,-19.664 Q195.682,-17.578 195.682,-13.648 Q195.682,-9.719 197.205,-7.625 Q198.729,-5.539 201.635,-5.539 Q204.494,-5.539 206.002,-7.625 Q207.518,-9.719 207.518,-13.648 Q207.518,-17.578 206.002,-19.664 Q204.494,-21.750 201.635,-21.750 Z M201.635,-28.000 Q208.689,-28.000 212.658,-24.188 Q216.627,-20.383 216.627,-13.648 Q216.627,-6.906 212.658,-3.094 Q208.689,0.711 201.635,0.711 Q194.557,0.711 190.564,-3.094 Q186.572,-6.906 186.572,-13.648 Q186.572,-20.383 190.564,-24.188 Q194.557,-28.000 201.635,-28.000 Z M248.313,-22.805 Q249.978,-25.344 252.259,-26.672 Q254.540,-28.000 257.274,-28.000 Q261.985,-28.000 264.454,-25.094 Q266.923,-22.195 266.923,-16.648 L266.923,-0.000 L258.134,-0.000 L258.134,-14.258 Q258.157,-14.578 258.165,-14.914 Q258.181,-15.258 258.181,-15.891 Q258.181,-18.797 257.321,-20.102 Q256.470,-21.414 254.563,-21.414 Q252.079,-21.414 250.720,-19.359 Q249.368,-17.312 249.313,-13.430 L249.313,-0.000 L240.524,-0.000 L240.524,-14.258 Q240.524,-18.797 239.743,-20.102 Q238.962,-21.414 236.962,-21.414 Q234.446,-21.414 233.079,-19.352 Q231.712,-17.289 231.712,-13.453 L231.712,-0.000 L222.923,-0.000 L222.923,-27.344 L231.712,-27.344 L231.712,-23.344 Q233.329,-25.656 235.415,-26.828 Q237.501,-28.000 240.017,-28.000 Q242.845,-28.000 245.017,-26.633 Q247.196,-25.266 248.313,-22.805 Z"
        transform="translate(96.544,205.000) scale(0.623095) translate(-4.594,36.453)"
        fill="#FFFFFF" stroke="#000000" stroke-width="3.531" stroke-linejoin="round"/>

</svg>
